# xmcd
#
# Track frame offsets: 
#        151
#        13520
#        26325
#        39532
#        53151
#        66132
#        78478
#        91173
#        103503
#        115740
#        129002
#        141388
#        153465
#        165819
#        178476
#        190271
#        203727
#        214898
#
# Disc length: 3022 seconds
#
# Revision: 1
# Processed by: cddbd v1.5.2PL0 Copyright (c) Steve Scherf et al.
# Submitted via: ExactAudioCopy v0.99pb4
#
DISCID=ea0bcc12
DTITLE=Wynonie Harris - Mr Blues
DYEAR=1900
DGENRE=Rhythm and Blues
TTITLE0=Here Comes The Blues
TTITLE1=Wynonie's Blues
TTITLE2=Around The Clock Part 1
TTITLE3=Around The Clock Part 2
TTITLE4=Yonder Goes My Baby
TTITLE5=She's Gone With The Wind
TTITLE6=Somebody Changed The Lock On My Door
TTITLE7=I Gotta Lyin' Woman
TTITLE8=Time To Change Your Town
TTITLE9=Papa Tree Top
TTITLE10=Good Rockin' Tonight
TTITLE11=Blow Your Brains Out
TTITLE12=Baby, Shame On You
TTITLE13=I Feel That Old Age Coming On
TTITLE14=Sittin' On It All The Time
TTITLE15=Mr Blues Is Coming To Town
TTITLE16=Lovin' Machine
TTITLE17=Rock Mr Blues
EXTD=
EXTT0=
EXTT1=
EXTT2=
EXTT3=
EXTT4=
EXTT5=
EXTT6=
EXTT7=
EXTT8=
EXTT9=
EXTT10=
EXTT11=
EXTT12=
EXTT13=
EXTT14=
EXTT15=
EXTT16=
EXTT17=
PLAYORDER=
